<?xml version="1.0" encoding="UTF-8" standalone="no"?>
<!-- Created with Inkscape (http://www.inkscape.org/) -->

<svg
   width="28.056118mm"
   height="43.346497mm"
   viewBox="0 0 28.056118 43.346497"
   version="1.1"
   id="svg5"
   inkscape:version="1.1.2 (0a00cf5339, 2022-02-04)"
   sodipodi:docname="logo.svg"
   xmlns:inkscape="http://www.inkscape.org/namespaces/inkscape"
   xmlns:sodipodi="http://sodipodi.sourceforge.net/DTD/sodipodi-0.dtd"
   xmlns="http://www.w3.org/2000/svg"
   xmlns:svg="http://www.w3.org/2000/svg">
  <sodipodi:namedview
     id="namedview7"
     pagecolor="#ffffff"
     bordercolor="#666666"
     borderopacity="1.0"
     inkscape:pageshadow="2"
     inkscape:pageopacity="0.0"
     inkscape:pagecheckerboard="0"
     inkscape:document-units="mm"
     showgrid="false"
     inkscape:zoom="0.48913556"
     inkscape:cx="-116.53211"
     inkscape:cy="128.79865"
     inkscape:window-width="1880"
     inkscape:window-height="1052"
     inkscape:window-x="40"
     inkscape:window-y="0"
     inkscape:window-maximized="1"
     inkscape:current-layer="layer1"
     fit-margin-top="0"
     fit-margin-left="0"
     fit-margin-right="0"
     fit-margin-bottom="0" />
  <defs
     id="defs2">
    <marker
       inkscape:stockid="DotM"
       orient="auto"
       refY="0"
       refX="0"
       id="DotM"
       style="overflow:visible"
       inkscape:isstock="true">
      <path
         id="path992"
         d="m -2.5,-1 c 0,2.76 -2.24,5 -5,5 -2.76,0 -5,-2.24 -5,-5 0,-2.76 2.24,-5 5,-5 2.76,0 5,2.24 5,5 z"
         style="fill:#264653;fill-opacity:1;fill-rule:evenodd;stroke:#264653;stroke-width:1pt;stroke-opacity:1"
         transform="matrix(0.4,0,0,0.4,2.96,0.4)" />
    </marker>
    <marker
       inkscape:isstock="true"
       style="overflow:visible"
       id="marker5401"
       refX="0"
       refY="0"
       orient="auto"
       inkscape:stockid="Arrow2Mend">
      <path
         transform="scale(-0.6)"
         d="M 8.7185878,4.0337352 -2.2072895,0.01601326 8.7185884,-4.0017078 c -1.7454984,2.3720609 -1.7354408,5.6174519 -6e-7,8.035443 z"
         style="fill:#264653;fill-opacity:1;fill-rule:evenodd;stroke:#264653;stroke-width:0.625;stroke-linejoin:round;stroke-opacity:1"
         id="path5399"
         inkscape:connector-curvature="0" />
    </marker>
  </defs>
  <g
     inkscape:label="Layer 1"
     inkscape:groupmode="layer"
     id="layer1"
     transform="translate(505.85008,-11.989483)">
    <g
       id="g45167"
       transform="matrix(0.17982598,0,0,0.17982598,-407.7779,36.109376)">
      <path
         id="rect1480"
         style="fill:#adb1b3;fill-opacity:0.00902297;stroke:#ffffff;stroke-width:2.64583;stroke-miterlimit:4;stroke-dasharray:none"
         d="m -476.96396,-80.481487 c -37.16518,0 -67.08582,29.919809 -67.08582,67.084993 v 106.04563 c 51.86663,17.090704 102.66475,17.510504 153.37233,-0.19024 v -105.85539 c 0,-37.165184 -29.91982,-67.084993 -67.08499,-67.084993 z"
         sodipodi:nodetypes="ssccsss" />
      <circle
         style="fill:#cb392e;fill-opacity:1;stroke:#ffffff;stroke-width:2.64583;stroke-miterlimit:4;stroke-dasharray:none;stroke-opacity:1"
         id="path972"
         cx="-467.36362"
         cy="-107.34319"
         r="25.462971" />
      <circle
         style="fill:#369844;fill-opacity:1;stroke:#ffffff;stroke-width:2.64583;stroke-miterlimit:4;stroke-dasharray:none;stroke-opacity:1"
         id="circle1054"
         cx="-467.36362"
         cy="-52.087303"
         r="18.102961" />
      <path
         id="rect1581"
         style="fill:#adb1b3;fill-opacity:0.040089;stroke:#ffffff;stroke-width:2.64583;stroke-miterlimit:4;stroke-dasharray:none"
         d="m -471.59,-32.060864 c -19.53099,0 -35.25477,15.72376 -35.25477,35.2547804 V 87.751256 c 32.30924,7.13493 50.18581,7.71291 78.96232,0 V 3.1939164 c 0,-19.5310204 -15.72379,-35.2547804 -35.25478,-35.2547804 z"
         sodipodi:nodetypes="ssccsss" />
      <path
         id="rect1352"
         style="fill:#4c64b0;fill-opacity:1;stroke:#ffffff;stroke-width:2.64583;stroke-miterlimit:4;stroke-dasharray:none"
         d="m -493.97584,24.76718 v 45.179114 c 12.5369,9.190084 42.36397,9.456186 53.1069,0 V 24.76718 Z"
         sodipodi:nodetypes="ccccc" />
      <ellipse
         style="fill:#4c64b0;fill-opacity:1;stroke:#ffffff;stroke-width:2.72042;stroke-miterlimit:4;stroke-dasharray:none;stroke-opacity:1"
         id="path1078"
         cx="-467.42239"
         cy="23.807245"
         rx="26.529749"
         ry="5.4804912" />
    </g>
  </g>
</svg>
